<svg width="27" height="36" viewBox="0 0 27 36" fill="none" xmlns="http://www.w3.org/2000/svg">
<path d="M13.4894 -3.8147e-06C8.58486 -3.8147e-06 4.60717 3.97768 4.60717 8.88221C4.60717 13.7867 8.58486 17.7644 13.4894 17.7644C18.3978 17.7644 22.3716 13.7867 22.3716 8.88221C22.3716 3.97768 18.3978 -3.8147e-06 13.4894 -3.8147e-06ZM18.4055 17.7722C16.9534 18.5831 15.2774 19.0466 13.4894 19.0466C11.7091 19.0466 10.033 18.5831 8.57327 17.7722C3.55289 19.7417 0 24.6153 0 30.3308V30.9062C3.59923 34.0807 8.32225 36 13.4894 36C18.6642 36 23.3795 34.0807 26.9865 30.8985V30.3308C26.9865 24.6153 23.4259 19.7417 18.4055 17.7722Z" fill="#949599"/>
<path d="M13.4894 -3.8147e-06C8.58486 -3.8147e-06 4.60717 3.97768 4.60717 8.88221C4.60717 13.7867 8.58486 17.7644 13.4894 17.7644C18.3978 17.7644 22.3716 13.7867 22.3716 8.88221C22.3716 3.97768 18.3978 -3.8147e-06 13.4894 -3.8147e-06ZM18.4055 17.7722C16.9534 18.5831 15.2774 19.0466 13.4894 19.0466C11.7091 19.0466 10.033 18.5831 8.57327 17.7722C3.55289 19.7417 0 24.6153 0 30.3308V30.9062C3.59923 34.0807 8.32225 36 13.4894 36C18.6642 36 23.3795 34.0807 26.9865 30.8985V30.3308C26.9865 24.6153 23.4259 19.7417 18.4055 17.7722Z" fill="#949599"/>
</svg>
