<svg width="288" height="432" viewBox="0 0 288 432" fill="none" xmlns="http://www.w3.org/2000/svg">
    <g clip-path="url(#clip0_67_664)">
        <path
            d="M-14.4453 161.757L-14.4453 206.836L24.5957 229.376L63.6357 206.836L63.6357 161.757L24.5957 139.217L-14.4453 161.757Z"
            fill="url(#paint0_linear_67_664)" />
        <path
            d="M-14.4453 161.757L-14.4453 206.836L24.5957 229.376L63.6357 206.836L63.6357 161.757L24.5957 139.217L-14.4453 161.757Z"
            fill="url(#paint1_linear_67_664)" />
        <path
            d="M-54.9531 91.358L-54.9531 136.438L-15.9131 158.979L23.1269 136.438L23.1269 91.358L-15.9131 68.818L-54.9531 91.358Z"
            fill="url(#paint2_linear_67_664)" />
        <path
            d="M-54.9531 91.358L-54.9531 136.438L-15.9131 158.979L23.1269 136.438L23.1269 91.358L-15.9131 68.818L-54.9531 91.358Z"
            fill="url(#paint3_linear_67_664)" />
        <path
            d="M-14.4453 20.9608L-14.4453 66.0399L24.5957 88.5798L63.6357 66.0399L63.6357 20.9608L24.5957 -1.57916L-14.4453 20.9608Z"
            fill="url(#paint4_linear_67_664)" />
        <path
            d="M-14.4453 20.9608L-14.4453 66.0399L24.5957 88.5798L63.6357 66.0399L63.6357 20.9608L24.5957 -1.57916L-14.4453 20.9608Z"
            fill="url(#paint5_linear_67_664)" />
        <path
            d="M147.953 302.553L147.953 347.632L186.993 370.172L226.033 347.632L226.033 302.553L186.993 280.013L147.953 302.553Z"
            fill="url(#paint6_linear_67_664)" />
        <path
            d="M147.953 302.553L147.953 347.632L186.993 370.172L226.033 347.632L226.033 302.553L186.993 280.013L147.953 302.553Z"
            fill="url(#paint7_linear_67_664)" />
        <path
            d="M66.8945 161.757L66.8945 206.836L105.935 229.376L144.975 206.836L144.975 161.757L105.935 139.217L66.8945 161.757Z"
            fill="url(#paint8_linear_67_664)" />
        <path
            d="M66.8945 161.757L66.8945 206.836L105.935 229.376L144.975 206.836L144.975 161.757L105.935 139.217L66.8945 161.757Z"
            fill="url(#paint9_linear_67_664)" />
        <path
            d="M26.3867 91.3578L26.3867 136.438L65.4267 158.979L104.467 136.438L104.467 91.3578L65.4267 68.8177L26.3867 91.3578Z"
            fill="url(#paint10_linear_67_664)" />
        <path
            d="M26.3867 91.3578L26.3867 136.438L65.4267 158.979L104.467 136.438L104.467 91.3578L65.4267 68.8177L26.3867 91.3578Z"
            fill="url(#paint11_linear_67_664)" />
        <path
            d="M107.445 91.3578L107.445 136.438L146.485 158.979L185.525 136.438L185.525 91.3578L146.485 68.8177L107.445 91.3578Z"
            fill="url(#paint12_linear_67_664)" />
        <path
            d="M107.445 91.3578L107.445 136.438L146.485 158.979L185.525 136.438L185.525 91.3578L146.485 68.8177L107.445 91.3578Z"
            fill="url(#paint13_linear_67_664)" />
        <path
            d="M66.8945 20.9608L66.8945 66.0399L105.935 88.5798L144.975 66.0399L144.975 20.9608L105.935 -1.57916L66.8945 20.9608Z"
            fill="url(#paint14_linear_67_664)" />
        <path
            d="M66.8945 20.9608L66.8945 66.0399L105.935 88.5798L144.975 66.0399L144.975 20.9608L105.935 -1.57916L66.8945 20.9608Z"
            fill="url(#paint15_linear_67_664)" />
        <path
            d="M147.953 20.9608L147.953 66.0399L186.993 88.5798L226.033 66.0399L226.033 20.9608L186.993 -1.57916L147.953 20.9608Z"
            fill="url(#paint16_linear_67_664)" />
        <path
            d="M147.953 20.9608L147.953 66.0399L186.993 88.5798L226.033 66.0399L226.033 20.9608L186.993 -1.57916L147.953 20.9608Z"
            fill="url(#paint17_linear_67_664)" />
        <path
            d="M229.293 302.553L229.293 347.632L268.334 370.172L307.373 347.632L307.373 302.553L268.334 280.013L229.293 302.553Z"
            fill="url(#paint18_linear_67_664)" />
        <path
            d="M229.293 302.553L229.293 347.632L268.334 370.172L307.373 347.632L307.373 302.553L268.334 280.013L229.293 302.553Z"
            fill="url(#paint19_linear_67_664)" />
        <path
            d="M188.785 232.154L188.785 277.234L227.825 299.774L266.866 277.234L266.866 232.154L227.825 209.615L188.785 232.154Z"
            fill="url(#paint20_linear_67_664)" />
        <path
            d="M188.785 232.154L188.785 277.234L227.825 299.774L266.866 277.234L266.866 232.154L227.825 209.615L188.785 232.154Z"
            fill="url(#paint21_linear_67_664)" />
        <path
            d="M229.293 161.757L229.293 206.836L268.334 229.376L307.373 206.836L307.373 161.757L268.334 139.217L229.293 161.757Z"
            fill="url(#paint22_linear_67_664)" />
        <path
            d="M229.293 161.757L229.293 206.836L268.334 229.376L307.373 206.836L307.373 161.757L268.334 139.217L229.293 161.757Z"
            fill="url(#paint23_linear_67_664)" />
        <path
            d="M400.469 340.192L400.469 272.335L341.703 238.407L282.937 272.335L282.937 340.192L341.703 374.12L400.469 340.192Z"
            fill="url(#paint24_linear_67_664)" />
        <path
            d="M400.469 340.192L400.469 272.335L341.703 238.407L282.937 272.335L282.937 340.192L341.703 374.12L400.469 340.192Z"
            fill="url(#paint25_linear_67_664)" />
        <path
            d="M95.0427 234.225L95.0427 166.368L36.2767 132.439L-22.4883 166.368L-22.4883 234.225L36.2767 268.153L95.0427 234.225Z"
            fill="url(#paint26_linear_67_664)" />
        <path
            d="M95.0427 234.225L95.0427 166.368L36.2767 132.439L-22.4883 166.368L-22.4883 234.225L36.2767 268.153L95.0427 234.225Z"
            fill="url(#paint27_linear_67_664)" />
        <path
            d="M-101.578 163.024L-101.578 230.902L-42.7941 264.841L15.9889 230.902L15.9889 163.024L-42.7941 129.086L-101.578 163.024Z"
            fill="url(#paint28_linear_67_664)" />
        <path
            d="M-101.578 163.024L-101.578 230.902L-42.7941 264.841L15.9889 230.902L15.9889 163.024L-42.7941 129.086L-101.578 163.024Z"
            fill="url(#paint29_linear_67_664)" />
        <path
            d="M-101.578 -48.9742L-101.578 18.9028L-42.7941 52.8418L15.9889 18.9028L15.9889 -48.9742L-42.7941 -82.9122L-101.578 -48.9742Z"
            fill="url(#paint30_linear_67_664)" />
        <path
            d="M-101.578 -48.9742L-101.578 18.9028L-42.7941 52.8418L15.9889 18.9028L15.9889 -48.9742L-42.7941 -82.9122L-101.578 -48.9742Z"
            fill="url(#paint31_linear_67_664)" />
        <path
            d="M142.949 375.023L142.949 442.9L201.732 476.839L260.516 442.9L260.516 375.023L201.732 341.084L142.949 375.023Z"
            fill="url(#paint32_linear_67_664)" />
        <path
            d="M142.949 375.023L142.949 442.9L201.732 476.839L260.516 442.9L260.516 375.023L201.732 341.084L142.949 375.023Z"
            fill="url(#paint33_linear_67_664)" />
        <path
            d="M20.8945 163.024L20.8945 230.902L79.6775 264.841L138.461 230.902L138.461 163.024L79.6775 129.086L20.8945 163.024Z"
            fill="url(#paint34_linear_67_664)" />
        <path
            d="M-40.0977 57.0248L-40.0977 124.902L18.6853 158.842L77.4693 124.902L77.4693 57.0248L18.6853 23.0868L-40.0977 57.0248Z"
            fill="url(#paint35_linear_67_664)" />
        <path
            d="M-40.0977 57.0248L-40.0977 124.902L18.6853 158.842L77.4693 124.902L77.4693 57.0248L18.6853 23.0868L-40.0977 57.0248Z"
            fill="url(#paint36_linear_67_664)" />
        <path
            d="M81.957 57.0248L81.957 124.902L140.741 158.842L199.524 124.902L199.524 57.0248L140.741 23.0868L81.957 57.0248Z"
            fill="url(#paint37_linear_67_664)" />
        <path
            d="M81.957 57.0248L81.957 124.902L140.741 158.842L199.524 124.902L199.524 57.0248L140.741 23.0868L81.957 57.0248Z"
            fill="url(#paint38_linear_67_664)" />
        <path
            d="M20.8945 -48.9742L20.8945 18.9028L79.6775 52.8418L138.461 18.9028L138.461 -48.9742L79.6775 -82.9122L20.8945 -48.9742Z"
            fill="url(#paint39_linear_67_664)" />
        <path
            d="M20.8945 -48.9742L20.8945 18.9028L79.6775 52.8418L138.461 18.9028L138.461 -48.9742L79.6775 -82.9122L20.8945 -48.9742Z"
            fill="url(#paint40_linear_67_664)" />
        <path
            d="M142.949 -48.9742L142.949 18.9028L201.732 52.8418L260.516 18.9028L260.516 -48.9742L201.732 -82.9122L142.949 -48.9742Z"
            fill="url(#paint41_linear_67_664)" />
        <path
            d="M142.949 -48.9742L142.949 18.9028L201.732 52.8418L260.516 18.9028L260.516 -48.9742L201.732 -82.9122L142.949 -48.9742Z"
            fill="url(#paint42_linear_67_664)" />
        <path
            d="M265.422 375.023L265.422 442.9L324.205 476.839L382.988 442.9L382.988 375.023L324.205 341.084L265.422 375.023Z"
            fill="url(#paint43_linear_67_664)" />
        <path
            d="M265.422 375.023L265.422 442.9L324.205 476.839L382.988 442.9L382.988 375.023L324.205 341.084L265.422 375.023Z"
            fill="url(#paint44_linear_67_664)" />
        <path
            d="M204.43 269.024L204.43 336.901L263.213 370.84L321.997 336.901L321.997 269.024L263.213 235.085L204.43 269.024Z"
            fill="url(#paint45_linear_67_664)" />
        <path
            d="M204.43 269.024L204.43 336.901L263.213 370.84L321.997 336.901L321.997 269.024L263.213 235.085L204.43 269.024Z"
            fill="url(#paint46_linear_67_664)" />
        <path
            d="M265.422 163.024L265.422 230.902L324.205 264.841L382.988 230.902L382.988 163.024L324.205 129.086L265.422 163.024Z"
            fill="url(#paint47_linear_67_664)" />
        <path
            d="M265.422 163.024L265.422 230.902L324.205 264.841L382.988 230.902L382.988 163.024L324.205 129.086L265.422 163.024Z"
            fill="url(#paint48_linear_67_664)" />
        <path
            d="M-23.0961 97.8958L14.4539 76.2158L52.0039 97.8958L52.0039 141.255L14.4539 162.934L-23.0961 141.255L-23.0961 97.8958M-23.7461 97.5208L-23.7461 141.63L14.4539 163.685L52.6539 141.63L52.6539 97.5208L14.4539 75.4648L-23.7461 97.5208Z"
            fill="#FAFAFA" />
        <path
            d="M-23.0961 97.8958L14.4539 76.2158L52.0039 97.8958L52.0039 141.255L14.4539 162.934L-23.0961 141.255L-23.0961 97.8958M-23.7461 97.5208L-23.7461 141.63L14.4539 163.685L52.6539 141.63L52.6539 97.5208L14.4539 75.4648L-23.7461 97.5208Z"
            fill="#FAFAFA" />
        <path
            d="M-62.7328 29.013L-25.1828 7.33301L12.3672 29.013L12.3672 72.371L-25.1828 94.051L-62.7328 72.371L-62.7328 29.013ZM-63.3828 28.637L-63.3828 72.747L-25.1828 94.802L13.0172 72.747L13.0172 28.637L-25.1828 6.582L-63.3828 28.637Z"
            fill="#FAFAFA" />
        <path
            d="M-62.7328 29.013L-25.1828 7.33301L12.3672 29.013L12.3672 72.371L-25.1828 94.051L-62.7328 72.371L-62.7328 29.013ZM-63.3828 28.637L-63.3828 72.747L-25.1828 94.802L13.0172 72.747L13.0172 28.637L-25.1828 6.582L-63.3828 28.637Z"
            fill="#FAFAFA" />
        <path
            d="M-23.0961 -39.8711L14.4539 -61.5501L52.0039 -39.8711L52.0039 3.48794L14.4539 25.1679L-23.0961 3.48795L-23.0961 -39.8711M-23.7461 -40.2461L-23.7461 3.86295L14.4539 25.9189L52.6539 3.86294L52.6539 -40.2461L14.4539 -62.3011L-23.7461 -40.2461Z"
            fill="#FAFAFA" />
        <path
            d="M-23.0961 -39.8711L14.4539 -61.5501L52.0039 -39.8711L52.0039 3.48794L14.4539 25.1679L-23.0961 3.48795L-23.0961 -39.8711M-23.7461 -40.2461L-23.7461 3.86295L14.4539 25.9189L52.6539 3.86294L52.6539 -40.2461L14.4539 -62.3011L-23.7461 -40.2461Z"
            fill="#FAFAFA" />
        <path
            d="M154.474 406.328L192.025 384.648L229.575 406.328L229.575 449.687L192.025 471.367L154.474 449.687L154.474 406.328ZM153.824 405.953L153.824 450.062L192.024 472.117L230.224 450.062L230.224 405.953L192.024 383.898L153.824 405.953Z"
            fill="#FAFAFA" />
        <path
            d="M154.474 406.328L192.025 384.648L229.575 406.328L229.575 449.687L192.025 471.367L154.474 449.687L154.474 406.328ZM153.824 405.953L153.824 450.062L192.024 472.117L230.224 450.062L230.224 405.953L192.024 383.898L153.824 405.953Z"
            fill="#FAFAFA" />
        <path
            d="M56.4898 97.8958L94.0398 76.2158L131.59 97.8958L131.59 141.255L94.0398 162.934L56.4898 141.255L56.4898 97.8958M55.8398 97.5208L55.8398 141.63L94.0398 163.685L132.24 141.63L132.24 97.5208L94.0398 75.4648L55.8398 97.5208Z"
            fill="#FAFAFA" />
        <path
            d="M56.4898 97.8958L94.0398 76.2158L131.59 97.8958L131.59 141.255L94.0398 162.934L56.4898 141.255L56.4898 97.8958M55.8398 97.5208L55.8398 141.63L94.0398 163.685L132.24 141.63L132.24 97.5208L94.0398 75.4648L55.8398 97.5208Z"
            fill="#FAFAFA" />
        <path
            d="M16.857 29.013L54.407 7.33301L91.957 29.013L91.957 72.371L54.407 94.051L16.857 72.371L16.857 29.013ZM16.207 28.637L16.207 72.747L54.407 94.802L92.607 72.747L92.607 28.637L54.407 6.582L16.207 28.637Z"
            fill="#FAFAFA" />
        <path
            d="M16.857 29.013L54.407 7.33301L91.957 29.013L91.957 72.371L54.407 94.051L16.857 72.371L16.857 29.013ZM16.207 28.637L16.207 72.747L54.407 94.802L92.607 72.747L92.607 28.637L54.407 6.582L16.207 28.637Z"
            fill="#FAFAFA" />
        <path
            d="M96.1724 29.013L133.722 7.33301L171.272 29.013L171.272 72.371L133.722 94.051L96.1724 72.371L96.1724 29.013ZM95.5234 28.637L95.5234 72.747L133.723 94.802L171.923 72.747L171.923 28.637L133.723 6.582L95.5234 28.637Z"
            fill="#FAFAFA" />
        <path
            d="M96.1724 29.013L133.722 7.33301L171.272 29.013L171.272 72.371L133.722 94.051L96.1724 72.371L96.1724 29.013ZM95.5234 28.637L95.5234 72.747L133.723 94.802L171.923 72.747L171.923 28.637L133.723 6.582L95.5234 28.637Z"
            fill="#FAFAFA" />
        <path
            d="M56.4898 -39.8711L94.0398 -61.5501L131.59 -39.8711L131.59 3.48794L94.0398 25.1679L56.4898 3.48795L56.4898 -39.8711M55.8398 -40.2461L55.8398 3.86295L94.0398 25.9189L132.24 3.86294L132.24 -40.2461L94.0398 -62.3011L55.8398 -40.2461Z"
            fill="#FAFAFA" />
        <path
            d="M56.4898 -39.8711L94.0398 -61.5501L131.59 -39.8711L131.59 3.48794L94.0398 25.1679L56.4898 3.48795L56.4898 -39.8711M55.8398 -40.2461L55.8398 3.86295L94.0398 25.9189L132.24 3.86294L132.24 -40.2461L94.0398 -62.3011L55.8398 -40.2461Z"
            fill="#FAFAFA" />
        <path
            d="M135.806 -39.8711L173.356 -61.5501L210.907 -39.8711L210.907 3.48794L173.356 25.1679L135.806 3.48795L135.806 -39.8711ZM135.156 -40.2461L135.156 3.86295L173.356 25.9189L211.556 3.86294L211.556 -40.2461L173.356 -62.3011L135.156 -40.2461Z"
            fill="#FAFAFA" />
        <path
            d="M135.806 -39.8711L173.356 -61.5501L210.907 -39.8711L210.907 3.48794L173.356 25.1679L135.806 3.48795L135.806 -39.8711ZM135.156 -40.2461L135.156 3.86295L173.356 25.9189L211.556 3.86294L211.556 -40.2461L173.356 -62.3011L135.156 -40.2461Z"
            fill="#FAFAFA" />
        <path
            d="M234.065 406.328L271.615 384.648L309.165 406.328L309.165 449.687L271.615 471.367L234.065 449.687L234.065 406.328M233.414 405.953L233.414 450.062L271.614 472.117L309.814 450.062L309.814 405.953L271.614 383.898L233.414 405.953Z"
            fill="#FAFAFA" />
        <path
            d="M234.065 406.328L271.615 384.648L309.165 406.328L309.165 449.687L271.615 471.367L234.065 449.687L234.065 406.328M233.414 405.953L233.414 450.062L271.614 472.117L309.814 450.062L309.814 405.953L271.614 383.898L233.414 405.953Z"
            fill="#FAFAFA" />
        <path
            d="M194.427 337.445L231.978 315.765L269.528 337.445L269.528 380.804L231.978 402.484L194.427 380.804L194.427 337.445ZM193.777 337.07L193.777 381.18L231.977 403.235L270.177 381.18L270.177 337.07L231.977 315.015L193.777 337.07Z"
            fill="#FAFAFA" />
        <path
            d="M194.427 337.445L231.978 315.765L269.528 337.445L269.528 380.804L231.978 402.484L194.427 380.804L194.427 337.445ZM193.777 337.07L193.777 381.18L231.977 403.235L270.177 381.18L270.177 337.07L231.977 315.015L193.777 337.07Z"
            fill="#FAFAFA" />
        <path
            d="M234.065 268.562L271.615 246.883L309.165 268.562L309.165 311.921L271.615 333.6L234.065 311.921L234.065 268.562M233.414 268.187L233.414 312.297L271.614 334.352L309.814 312.297L309.814 268.187L271.614 246.132L233.414 268.187Z"
            fill="#FAFAFA" />
        <path
            d="M234.065 268.562L271.615 246.883L309.165 268.562L309.165 311.921L271.615 333.6L234.065 311.921L234.065 268.562M233.414 268.187L233.414 312.297L271.614 334.352L309.814 312.297L309.814 268.187L271.614 246.132L233.414 268.187Z"
            fill="#FAFAFA" />
    </g>
    <defs>
        <linearGradient id="paint0_linear_67_664" x1="57.3699" y1="217.07" x2="-10.589" y2="149.111"
            gradientUnits="userSpaceOnUse">
            <stop stop-color="#FBFBFB" />
            <stop offset="0.2188" stop-color="#F5F5F5" />
            <stop offset="0.5174" stop-color="#E4E3E4" />
            <stop offset="0.8603" stop-color="#C8C7C8" />
            <stop offset="1" stop-color="#BAB9BA" />
        </linearGradient>
        <linearGradient id="paint1_linear_67_664" x1="55.386" y1="215.085" x2="-6.19381" y2="153.506"
            gradientUnits="userSpaceOnUse">
            <stop stop-color="#FBFBFB" />
            <stop offset="0.2188" stop-color="#F5F5F5" />
            <stop offset="0.5174" stop-color="#E4E3E4" />
            <stop offset="0.8603" stop-color="#C8C7C8" />
            <stop offset="1" stop-color="#BAB9BA" />
        </linearGradient>
        <linearGradient id="paint2_linear_67_664" x1="16.8613" y1="146.672" x2="-51.0979" y2="78.7127"
            gradientUnits="userSpaceOnUse">
            <stop stop-color="#FBFBFB" />
            <stop offset="0.2188" stop-color="#F5F5F5" />
            <stop offset="0.5174" stop-color="#E4E3E4" />
            <stop offset="0.8603" stop-color="#C8C7C8" />
            <stop offset="1" stop-color="#BAB9BA" />
        </linearGradient>
        <linearGradient id="paint3_linear_67_664" x1="14.8774" y1="144.688" x2="-46.7027" y2="83.1084"
            gradientUnits="userSpaceOnUse">
            <stop stop-color="#FBFBFB" />
            <stop offset="0.2188" stop-color="#F5F5F5" />
            <stop offset="0.5174" stop-color="#E4E3E4" />
            <stop offset="0.8603" stop-color="#C8C7C8" />
            <stop offset="1" stop-color="#BAB9BA" />
        </linearGradient>
        <linearGradient id="paint4_linear_67_664" x1="57.3694" y1="76.2742" x2="-10.5895" y2="8.31533"
            gradientUnits="userSpaceOnUse">
            <stop stop-color="#FBFBFB" />
            <stop offset="0.2188" stop-color="#F5F5F5" />
            <stop offset="0.5174" stop-color="#E4E3E4" />
            <stop offset="0.8603" stop-color="#C8C7C8" />
            <stop offset="1" stop-color="#BAB9BA" />
        </linearGradient>
        <linearGradient id="paint5_linear_67_664" x1="55.385" y1="74.2898" x2="-6.19481" y2="12.71"
            gradientUnits="userSpaceOnUse">
            <stop stop-color="#FBFBFB" />
            <stop offset="0.2188" stop-color="#F5F5F5" />
            <stop offset="0.5174" stop-color="#E4E3E4" />
            <stop offset="0.8603" stop-color="#C8C7C8" />
            <stop offset="1" stop-color="#BAB9BA" />
        </linearGradient>
        <linearGradient id="paint6_linear_67_664" x1="219.768" y1="357.866" x2="151.809" y2="289.907"
            gradientUnits="userSpaceOnUse">
            <stop stop-color="#BAB9BA" />
            <stop offset="0.1397" stop-color="#C8C7C8" />
            <stop offset="0.4826" stop-color="#E4E3E4" />
            <stop offset="0.7812" stop-color="#F5F5F5" />
            <stop offset="1" stop-color="#FBFBFB" />
        </linearGradient>
        <linearGradient id="paint7_linear_67_664" x1="217.783" y1="355.882" x2="156.204" y2="294.302"
            gradientUnits="userSpaceOnUse">
            <stop stop-color="#BAB9BA" />
            <stop offset="0.1397" stop-color="#C8C7C8" />
            <stop offset="0.4826" stop-color="#E4E3E4" />
            <stop offset="0.7812" stop-color="#F5F5F5" />
            <stop offset="1" stop-color="#FBFBFB" />
        </linearGradient>
        <linearGradient id="paint8_linear_67_664" x1="138.709" y1="217.07" x2="70.7502" y2="149.111"
            gradientUnits="userSpaceOnUse">
            <stop stop-color="#FBFBFB" />
            <stop offset="0.2188" stop-color="#F5F5F5" />
            <stop offset="0.5174" stop-color="#E4E3E4" />
            <stop offset="0.8603" stop-color="#C8C7C8" />
            <stop offset="1" stop-color="#BAB9BA" />
        </linearGradient>
        <linearGradient id="paint9_linear_67_664" x1="136.725" y1="215.085" x2="75.1453" y2="153.506"
            gradientUnits="userSpaceOnUse">
            <stop stop-color="#FBFBFB" />
            <stop offset="0.2188" stop-color="#F5F5F5" />
            <stop offset="0.5174" stop-color="#E4E3E4" />
            <stop offset="0.8603" stop-color="#C8C7C8" />
            <stop offset="1" stop-color="#BAB9BA" />
        </linearGradient>
        <linearGradient id="paint10_linear_67_664" x1="98.2014" y1="146.672" x2="30.2422" y2="78.7125"
            gradientUnits="userSpaceOnUse">
            <stop stop-color="#FBFBFB" />
            <stop offset="0.2188" stop-color="#F5F5F5" />
            <stop offset="0.5174" stop-color="#E4E3E4" />
            <stop offset="0.8603" stop-color="#C8C7C8" />
            <stop offset="1" stop-color="#BAB9BA" />
        </linearGradient>
        <linearGradient id="paint11_linear_67_664" x1="96.2175" y1="144.688" x2="34.6374" y2="83.1082"
            gradientUnits="userSpaceOnUse">
            <stop stop-color="#FBFBFB" />
            <stop offset="0.2188" stop-color="#F5F5F5" />
            <stop offset="0.5174" stop-color="#E4E3E4" />
            <stop offset="0.8603" stop-color="#C8C7C8" />
            <stop offset="1" stop-color="#BAB9BA" />
        </linearGradient>
        <linearGradient id="paint12_linear_67_664" x1="179.26" y1="146.672" x2="111.301" y2="78.7125"
            gradientUnits="userSpaceOnUse">
            <stop stop-color="#FBFBFB" />
            <stop offset="0.2188" stop-color="#F5F5F5" />
            <stop offset="0.5174" stop-color="#E4E3E4" />
            <stop offset="0.8603" stop-color="#C8C7C8" />
            <stop offset="1" stop-color="#BAB9BA" />
        </linearGradient>
        <linearGradient id="paint13_linear_67_664" x1="177.277" y1="144.687" x2="115.697" y2="83.1072"
            gradientUnits="userSpaceOnUse">
            <stop stop-color="#FBFBFB" />
            <stop offset="0.2188" stop-color="#F5F5F5" />
            <stop offset="0.5174" stop-color="#E4E3E4" />
            <stop offset="0.8603" stop-color="#C8C7C8" />
            <stop offset="1" stop-color="#BAB9BA" />
        </linearGradient>
        <linearGradient id="paint14_linear_67_664" x1="138.709" y1="76.2742" x2="70.7497" y2="8.31533"
            gradientUnits="userSpaceOnUse">
            <stop stop-color="#FBFBFB" />
            <stop offset="0.2188" stop-color="#F5F5F5" />
            <stop offset="0.5174" stop-color="#E4E3E4" />
            <stop offset="0.8603" stop-color="#C8C7C8" />
            <stop offset="1" stop-color="#BAB9BA" />
        </linearGradient>
        <linearGradient id="paint15_linear_67_664" x1="136.724" y1="74.2898" x2="75.1443" y2="12.71"
            gradientUnits="userSpaceOnUse">
            <stop stop-color="#FBFBFB" />
            <stop offset="0.2188" stop-color="#F5F5F5" />
            <stop offset="0.5174" stop-color="#E4E3E4" />
            <stop offset="0.8603" stop-color="#C8C7C8" />
            <stop offset="1" stop-color="#BAB9BA" />
        </linearGradient>
        <linearGradient id="paint16_linear_67_664" x1="219.768" y1="76.2742" x2="151.809" y2="8.31564"
            gradientUnits="userSpaceOnUse">
            <stop stop-color="#FBFBFB" />
            <stop offset="0.2188" stop-color="#F5F5F5" />
            <stop offset="0.5174" stop-color="#E4E3E4" />
            <stop offset="0.8603" stop-color="#C8C7C8" />
            <stop offset="1" stop-color="#BAB9BA" />
        </linearGradient>
        <linearGradient id="paint17_linear_67_664" x1="217.783" y1="74.2898" x2="156.204" y2="12.7102"
            gradientUnits="userSpaceOnUse">
            <stop stop-color="#FBFBFB" />
            <stop offset="0.2188" stop-color="#F5F5F5" />
            <stop offset="0.5174" stop-color="#E4E3E4" />
            <stop offset="0.8603" stop-color="#C8C7C8" />
            <stop offset="1" stop-color="#BAB9BA" />
        </linearGradient>
        <linearGradient id="paint18_linear_67_664" x1="301.107" y1="357.866" x2="233.149" y2="289.907"
            gradientUnits="userSpaceOnUse">
            <stop stop-color="#BAB9BA" />
            <stop offset="0.1397" stop-color="#C8C7C8" />
            <stop offset="0.4826" stop-color="#E4E3E4" />
            <stop offset="0.7812" stop-color="#F5F5F5" />
            <stop offset="1" stop-color="#FBFBFB" />
        </linearGradient>
        <linearGradient id="paint19_linear_67_664" x1="299.124" y1="355.882" x2="237.544" y2="294.302"
            gradientUnits="userSpaceOnUse">
            <stop stop-color="#BAB9BA" />
            <stop offset="0.1397" stop-color="#C8C7C8" />
            <stop offset="0.4826" stop-color="#E4E3E4" />
            <stop offset="0.7812" stop-color="#F5F5F5" />
            <stop offset="1" stop-color="#FBFBFB" />
        </linearGradient>
        <linearGradient id="paint20_linear_67_664" x1="260.601" y1="287.468" x2="192.641" y2="219.509"
            gradientUnits="userSpaceOnUse">
            <stop stop-color="#BAB9BA" />
            <stop offset="0.1397" stop-color="#C8C7C8" />
            <stop offset="0.4826" stop-color="#E4E3E4" />
            <stop offset="0.7812" stop-color="#F5F5F5" />
            <stop offset="1" stop-color="#FBFBFB" />
        </linearGradient>
        <linearGradient id="paint21_linear_67_664" x1="258.616" y1="285.484" x2="197.036" y2="223.903"
            gradientUnits="userSpaceOnUse">
            <stop stop-color="#BAB9BA" />
            <stop offset="0.1397" stop-color="#C8C7C8" />
            <stop offset="0.4826" stop-color="#E4E3E4" />
            <stop offset="0.7812" stop-color="#F5F5F5" />
            <stop offset="1" stop-color="#FBFBFB" />
        </linearGradient>
        <linearGradient id="paint22_linear_67_664" x1="301.107" y1="217.07" x2="233.149" y2="149.111"
            gradientUnits="userSpaceOnUse">
            <stop stop-color="#BAB9BA" />
            <stop offset="0.1397" stop-color="#C8C7C8" />
            <stop offset="0.4826" stop-color="#E4E3E4" />
            <stop offset="0.7812" stop-color="#F5F5F5" />
            <stop offset="1" stop-color="#FBFBFB" />
        </linearGradient>
        <linearGradient id="paint23_linear_67_664" x1="299.123" y1="215.086" x2="237.543" y2="153.506"
            gradientUnits="userSpaceOnUse">
            <stop stop-color="#BAB9BA" />
            <stop offset="0.1397" stop-color="#C8C7C8" />
            <stop offset="0.4826" stop-color="#E4E3E4" />
            <stop offset="0.7812" stop-color="#F5F5F5" />
            <stop offset="1" stop-color="#FBFBFB" />
        </linearGradient>
        <linearGradient id="paint24_linear_67_664" x1="292.368" y1="256.931" x2="394.664" y2="359.227"
            gradientUnits="userSpaceOnUse">
            <stop />
            <stop offset="0.6007" stop-color="#252525" />
            <stop offset="1" stop-color="#404040" />
        </linearGradient>
        <linearGradient id="paint25_linear_67_664" x1="295.355" y1="259.917" x2="388.049" y2="352.611"
            gradientUnits="userSpaceOnUse">
            <stop />
            <stop offset="0.6007" stop-color="#252525" />
            <stop offset="1" stop-color="#404040" />
        </linearGradient>
        <linearGradient id="paint26_linear_67_664" x1="-13.0574" y1="150.964" x2="89.2386" y2="253.26"
            gradientUnits="userSpaceOnUse">
            <stop stop-color="#404040" />
            <stop offset="0.3993" stop-color="#252525" />
            <stop offset="1" />
        </linearGradient>
        <linearGradient id="paint27_linear_67_664" x1="-10.0711" y1="153.95" x2="82.6229" y2="246.644"
            gradientUnits="userSpaceOnUse">
            <stop stop-color="white" />
            <stop offset="0.3993" stop-color="white" />
            <stop offset="0.9999" stop-color="white" />
            <stop offset="1" />
        </linearGradient>
        <linearGradient id="paint28_linear_67_664" x1="6.55457" y1="246.311" x2="-95.7726" y2="143.984"
            gradientUnits="userSpaceOnUse">
            <stop stop-color="#FBFBFB" />
            <stop offset="0.2188" stop-color="#F5F5F5" />
            <stop offset="0.5174" stop-color="#E4E3E4" />
            <stop offset="0.8603" stop-color="#C8C7C8" />
            <stop offset="1" stop-color="#BAB9BA" />
        </linearGradient>
        <linearGradient id="paint29_linear_67_664" x1="3.56727" y1="243.324" x2="-89.1548" y2="150.601"
            gradientUnits="userSpaceOnUse">
            <stop stop-color="#FBFBFB" />
            <stop offset="0.2188" stop-color="#F5F5F5" />
            <stop offset="0.5174" stop-color="#E4E3E4" />
            <stop offset="0.8603" stop-color="#C8C7C8" />
            <stop offset="1" stop-color="#BAB9BA" />
        </linearGradient>
        <linearGradient id="paint30_linear_67_664" x1="6.55458" y1="34.3133" x2="-95.7724" y2="-68.0137"
            gradientUnits="userSpaceOnUse">
            <stop stop-color="#FBFBFB" />
            <stop offset="0.2188" stop-color="#F5F5F5" />
            <stop offset="0.5174" stop-color="#E4E3E4" />
            <stop offset="0.8603" stop-color="#C8C7C8" />
            <stop offset="1" stop-color="#BAB9BA" />
        </linearGradient>
        <linearGradient id="paint31_linear_67_664" x1="3.56677" y1="31.325" x2="-89.1551" y2="-61.3969"
            gradientUnits="userSpaceOnUse">
            <stop stop-color="#FBFBFB" />
            <stop offset="0.2188" stop-color="#F5F5F5" />
            <stop offset="0.5174" stop-color="#E4E3E4" />
            <stop offset="0.8603" stop-color="#C8C7C8" />
            <stop offset="1" stop-color="#BAB9BA" />
        </linearGradient>
        <linearGradient id="paint32_linear_67_664" x1="251.081" y1="458.31" x2="148.754" y2="355.983"
            gradientUnits="userSpaceOnUse">
            <stop stop-color="#FBFBFB" />
            <stop offset="0.2188" stop-color="#F5F5F5" />
            <stop offset="0.5174" stop-color="#E4E3E4" />
            <stop offset="0.8603" stop-color="#C8C7C8" />
            <stop offset="1" stop-color="#BAB9BA" />
        </linearGradient>
        <linearGradient id="paint33_linear_67_664" x1="248.094" y1="455.323" x2="155.372" y2="362.6"
            gradientUnits="userSpaceOnUse">
            <stop stop-color="#FBFBFB" />
            <stop offset="0.2188" stop-color="#F5F5F5" />
            <stop offset="0.5174" stop-color="#E4E3E4" />
            <stop offset="0.8603" stop-color="#C8C7C8" />
            <stop offset="1" stop-color="#BAB9BA" />
        </linearGradient>
        <linearGradient id="paint34_linear_67_664" x1="129.026" y1="246.311" x2="26.6994" y2="143.984"
            gradientUnits="userSpaceOnUse">
            <stop stop-color="#FBFBFB" />
            <stop offset="0.2188" stop-color="#F5F5F5" />
            <stop offset="0.5174" stop-color="#E4E3E4" />
            <stop offset="0.8603" stop-color="#C8C7C8" />
            <stop offset="1" stop-color="#BAB9BA" />
        </linearGradient>
        <linearGradient id="paint35_linear_67_664" x1="68.0345" y1="140.311" x2="-34.2925" y2="37.9843"
            gradientUnits="userSpaceOnUse">
            <stop stop-color="#FBFBFB" />
            <stop offset="0.2188" stop-color="#F5F5F5" />
            <stop offset="0.5174" stop-color="#E4E3E4" />
            <stop offset="0.8603" stop-color="#C8C7C8" />
            <stop offset="1" stop-color="#BAB9BA" />
        </linearGradient>
        <linearGradient id="paint36_linear_67_664" x1="65.0472" y1="137.324" x2="-27.6748" y2="44.6021"
            gradientUnits="userSpaceOnUse">
            <stop stop-color="#FBFBFB" />
            <stop offset="0.2188" stop-color="#F5F5F5" />
            <stop offset="0.5174" stop-color="#E4E3E4" />
            <stop offset="0.8603" stop-color="#C8C7C8" />
            <stop offset="1" stop-color="#BAB9BA" />
        </linearGradient>
        <linearGradient id="paint37_linear_67_664" x1="190.09" y1="140.312" x2="87.7626" y2="37.985"
            gradientUnits="userSpaceOnUse">
            <stop stop-color="#FBFBFB" />
            <stop offset="0.2188" stop-color="#F5F5F5" />
            <stop offset="0.5174" stop-color="#E4E3E4" />
            <stop offset="0.8603" stop-color="#C8C7C8" />
            <stop offset="1" stop-color="#BAB9BA" />
        </linearGradient>
        <linearGradient id="paint38_linear_67_664" x1="187.103" y1="137.324" x2="94.3804" y2="44.6019"
            gradientUnits="userSpaceOnUse">
            <stop stop-color="#FBFBFB" />
            <stop offset="0.2188" stop-color="#F5F5F5" />
            <stop offset="0.5174" stop-color="#E4E3E4" />
            <stop offset="0.8603" stop-color="#C8C7C8" />
            <stop offset="1" stop-color="#BAB9BA" />
        </linearGradient>
        <linearGradient id="paint39_linear_67_664" x1="129.026" y1="34.3123" x2="26.6991" y2="-68.0145"
            gradientUnits="userSpaceOnUse">
            <stop stop-color="#FBFBFB" />
            <stop offset="0.2188" stop-color="#F5F5F5" />
            <stop offset="0.5174" stop-color="#E4E3E4" />
            <stop offset="0.8603" stop-color="#C8C7C8" />
            <stop offset="1" stop-color="#BAB9BA" />
        </linearGradient>
        <linearGradient id="paint40_linear_67_664" x1="126.039" y1="31.325" x2="33.3169" y2="-61.3967"
            gradientUnits="userSpaceOnUse">
            <stop stop-color="#FBFBFB" />
            <stop offset="0.2188" stop-color="#F5F5F5" />
            <stop offset="0.5174" stop-color="#E4E3E4" />
            <stop offset="0.8603" stop-color="#C8C7C8" />
            <stop offset="1" stop-color="#BAB9BA" />
        </linearGradient>
        <linearGradient id="paint41_linear_67_664" x1="251.081" y1="34.3123" x2="148.754" y2="-68.0147"
            gradientUnits="userSpaceOnUse">
            <stop stop-color="#FBFBFB" />
            <stop offset="0.2188" stop-color="#F5F5F5" />
            <stop offset="0.5174" stop-color="#E4E3E4" />
            <stop offset="0.8603" stop-color="#C8C7C8" />
            <stop offset="1" stop-color="#BAB9BA" />
        </linearGradient>
        <linearGradient id="paint42_linear_67_664" x1="248.094" y1="31.325" x2="155.372" y2="-61.3969"
            gradientUnits="userSpaceOnUse">
            <stop stop-color="#FBFBFB" />
            <stop offset="0.2188" stop-color="#F5F5F5" />
            <stop offset="0.5174" stop-color="#E4E3E4" />
            <stop offset="0.8603" stop-color="#C8C7C8" />
            <stop offset="1" stop-color="#BAB9BA" />
        </linearGradient>
        <linearGradient id="paint43_linear_67_664" x1="373.554" y1="458.309" x2="271.227" y2="355.982"
            gradientUnits="userSpaceOnUse">
            <stop stop-color="#FBFBFB" />
            <stop offset="0.2188" stop-color="#F5F5F5" />
            <stop offset="0.5174" stop-color="#E4E3E4" />
            <stop offset="0.8603" stop-color="#C8C7C8" />
            <stop offset="1" stop-color="#BAB9BA" />
        </linearGradient>
        <linearGradient id="paint44_linear_67_664" x1="370.566" y1="455.322" x2="277.844" y2="362.6"
            gradientUnits="userSpaceOnUse">
            <stop stop-color="#FBFBFB" />
            <stop offset="0.2188" stop-color="#F5F5F5" />
            <stop offset="0.5174" stop-color="#E4E3E4" />
            <stop offset="0.8603" stop-color="#C8C7C8" />
            <stop offset="1" stop-color="#BAB9BA" />
        </linearGradient>
        <linearGradient id="paint45_linear_67_664" x1="312.562" y1="352.311" x2="210.235" y2="249.983"
            gradientUnits="userSpaceOnUse">
            <stop stop-color="#FBFBFB" />
            <stop offset="0.2188" stop-color="#F5F5F5" />
            <stop offset="0.5174" stop-color="#E4E3E4" />
            <stop offset="0.8603" stop-color="#C8C7C8" />
            <stop offset="1" stop-color="#BAB9BA" />
        </linearGradient>
        <linearGradient id="paint46_linear_67_664" x1="309.575" y1="349.323" x2="216.853" y2="256.601"
            gradientUnits="userSpaceOnUse">
            <stop stop-color="#FBFBFB" />
            <stop offset="0.2188" stop-color="#F5F5F5" />
            <stop offset="0.5174" stop-color="#E4E3E4" />
            <stop offset="0.8603" stop-color="#C8C7C8" />
            <stop offset="1" stop-color="#BAB9BA" />
        </linearGradient>
        <linearGradient id="paint47_linear_67_664" x1="373.554" y1="246.311" x2="271.227" y2="143.984"
            gradientUnits="userSpaceOnUse">
            <stop stop-color="#FBFBFB" />
            <stop offset="0.2188" stop-color="#F5F5F5" />
            <stop offset="0.5174" stop-color="#E4E3E4" />
            <stop offset="0.8603" stop-color="#C8C7C8" />
            <stop offset="1" stop-color="#BAB9BA" />
        </linearGradient>
        <linearGradient id="paint48_linear_67_664" x1="370.566" y1="243.324" x2="277.844" y2="150.602"
            gradientUnits="userSpaceOnUse">
            <stop stop-color="#FBFBFB" />
            <stop offset="0.2188" stop-color="#F5F5F5" />
            <stop offset="0.5174" stop-color="#E4E3E4" />
            <stop offset="0.8603" stop-color="#C8C7C8" />
            <stop offset="1" stop-color="#BAB9BA" />
        </linearGradient>
        <clipPath id="clip0_67_664">
            <rect width="432" height="288" fill="white" transform="translate(0 432) rotate(-90)" />
        </clipPath>
    </defs>
</svg>