<svg width="393" height="560" viewBox="0 0 393 560" fill="none" xmlns="http://www.w3.org/2000/svg">
    <path opacity="0.5"
        d="M150 99.7942C138.334 101.94 127.872 110.15 122.755 121.171C115.722 136.321 118.504 155.445 109.144 169.192C101.785 180 88.2931 184.869 75.4862 184.997C62.6803 185.124 50.2057 181.226 37.855 177.736C25.5043 174.246 12.7032 171.106 0 172.782V0H149.999V99.7942H150Z"
        fill="url(#paint0_linear_63_599)" />
    <path
        d="M147.102 103.178C146.252 111.396 150.793 119.41 156.936 124.846C163.079 130.281 170.699 133.633 178.109 137.085C185.519 140.537 193.022 144.299 198.619 150.311C203.93 156.018 207.146 163.341 211.203 170.022C227.269 196.476 258.334 212.792 288.929 210.843C319.525 208.895 348.329 188.766 361 160.481V0H172.022L147.102 103.178Z"
        fill="url(#paint1_linear_63_599)" />
    <path opacity="0.5"
        d="M349.461 356.007C349.141 370.206 335.041 381.678 319.763 386.76C304.486 391.842 287.76 392.238 271.667 394.799C255.575 397.361 238.799 402.903 229.924 414.834C219.316 429.095 222.065 449.711 207.887 461.403C200.683 467.344 190.437 469.632 180.538 470.388C170.639 471.143 160.616 470.596 150.795 471.912C130.45 474.641 111.821 485.783 101.639 501.313C91.4572 516.844 89.9352 536.436 97.6242 553.012H392.326V356.007H349.461Z"
        fill="url(#paint2_linear_63_599)" />
    <path opacity="0.5"
        d="M2.502 437.791C1.991 420.734 1.95028 409.412 11.5003 394.5C21.0503 379.587 10.7847 366.807 30.1147 363.712C49.4447 360.617 71.1806 367.741 81.0257 382.509C86.7176 391.047 88.1916 401.17 92.2757 410.375C96.3597 419.581 104.726 428.693 116.075 429.209C128.548 429.776 138.549 419.925 150.854 418.071C158.558 416.91 166.588 419.073 173.043 422.902C179.498 426.731 184.538 432.111 188.818 437.791C198.965 451.256 205.36 468.135 199.865 483.501C195.865 494.686 185.988 503.725 174.633 510.051C163.279 516.377 150.416 520.311 137.685 524.19C102.458 534.922 67.2317 545.655 32.0047 556.387C27.4207 557.783 22.7257 559.198 17.8667 559.182C13.0087 559.166 7.87069 557.444 5.36069 553.833L2.502 437.791Z"
        fill="url(#paint3_linear_63_599)" />
    <path
        d="M230.999 98.011C223.107 93.4092 213.183 95.0542 205.372 99.8237C197.561 104.593 191.442 112.08 185.584 119.524C179.725 126.968 173.849 134.626 166.314 139.91C154.709 148.047 140.32 149.727 126.594 149.072C112.867 148.415 99.2389 145.648 85.5002 145.778C71.7615 145.907 57.3944 149.317 47.0657 159.339C42.031 164.223 38.2131 170.417 34.0052 176.181C29.7973 181.944 24.9621 187.477 18.7694 190.297C12.5768 193.117 4.74746 192.622 0 187.399V0H231V98.011H230.999Z"
        fill="url(#paint4_linear_63_599)" />
    <path
        d="M1 471.761C16.1621 456.765 36.6862 448.45 57.1106 449.028C77.535 449.608 97.6372 459.077 112.07 474.914C117.748 481.144 122.617 488.344 129.095 493.555C143.58 505.205 163.334 504.848 181.01 501.294C198.686 497.741 216.282 491.474 234.197 493.029C249.753 494.381 264.806 501.859 275.981 513.788C287.155 525.716 294.367 542.004 296 559H1V471.761Z"
        fill="url(#paint5_linear_63_599)" />
    <path
        d="M10.117 31.4287C8.99619 53.489 15.9969 75.9023 29.3084 92.8682C42.6188 109.834 62.1042 121.177 82.7193 123.964C106.191 127.136 129.605 119.623 153.021 116.021C176.437 112.419 202.863 113.723 220.145 130.902C227.668 138.378 232.748 148.229 239.893 156.115C261.113 179.538 298.802 180.625 324.147 162.413C349.491 144.203 362.577 110.446 361.98 77.9324V0H10L10.117 31.4287Z"
        fill="url(#paint6_linear_63_599)" />
    <path
        d="M370.576 139.964C361.422 165.079 339.239 185.032 313.298 191.485C287.358 197.938 258.412 190.702 238.558 172.803C224.994 160.574 215.444 143.786 199.819 134.33C182.52 123.862 160.71 124.261 140.884 128.233C121.058 132.205 101.861 139.401 81.7547 141.539C55.4677 144.334 28.3038 138.07 5.89575 124.047C5.89575 124.047 2.5 123 0.5 118"
        stroke="url(#paint7_linear_63_599)" stroke-width="0.7931" stroke-miterlimit="10" />
    <path opacity="0.5"
        d="M230.367 283.734C259.288 283.734 282.734 260.288 282.734 231.367C282.734 202.446 259.288 179 230.367 179C201.446 179 178 202.446 178 231.367C178 260.288 201.446 283.734 230.367 283.734Z"
        stroke="url(#paint8_linear_63_599)" stroke-width="0.7931" stroke-miterlimit="10" />
    <path
        d="M4.00391 449.5C6.00391 448 21.5039 442.862 28.3764 441.305C51.2114 436.132 77.6734 439.018 94.8124 453.027C102.539 459.342 108.044 467.556 116.313 473.339C129.344 482.45 147.422 484.222 164.109 482.751C180.796 481.28 197.008 476.98 213.681 475.395C245.649 472.358 278.805 479.788 305.017 495.865C331.229 511.941 343.828 526.454 351.004 553.5"
        stroke="url(#paint9_linear_63_599)" stroke-width="0.7268" stroke-miterlimit="10" />
    <path
        d="M354.89 404C353.577 415.955 341.518 425.195 328.54 429.357C315.561 433.519 301.444 433.827 287.76 435.589C274.074 437.353 259.819 441.051 250.752 450.121C236.119 464.762 239.12 489.037 222.732 502.202C214.602 508.734 203.202 511.137 192.219 512.396C181.237 513.657 169.941 514.056 159.615 517.539C140.594 523.954 127.267 541.367 127.826 559.073H375.578V404H354.89Z"
        fill="url(#paint10_linear_63_599)" />
    <path
        d="M272 507.385V559H1V406L31.1526 417.48C43.4713 426.889 61.7806 427.731 77.7848 424.664C93.788 421.597 108.722 415.209 124.609 411.713C140.496 408.216 158.618 408.024 171.885 416.399C183.07 423.458 188.814 435.303 192.504 446.895C196.193 458.486 198.44 470.605 204.931 481.224C217.389 501.607 245.983 513.442 272 508.985"
        fill="url(#paint11_linear_63_599)" />
    <path
        d="M171.87 343.435C171.87 344.227 171.228 344.87 170.435 344.87C169.643 344.87 169 344.227 169 343.435C169 342.643 169.643 342 170.435 342C171.228 342 171.87 342.643 171.87 343.435ZM177.227 342C176.435 342 175.792 342.642 175.792 343.435C175.792 344.227 176.435 344.87 177.227 344.87C178.019 344.87 178.662 344.227 178.662 343.435C178.662 342.643 178.02 342 177.227 342ZM184.019 342C183.227 342 182.584 342.642 182.584 343.435C182.584 344.227 183.227 344.87 184.019 344.87C184.811 344.87 185.454 344.227 185.454 343.435C185.454 342.643 184.812 342 184.019 342ZM190.812 342C190.02 342 189.377 342.642 189.377 343.435C189.377 344.227 190.019 344.87 190.812 344.87C191.604 344.87 192.246 344.227 192.246 343.435C192.246 342.643 191.604 342 190.812 342ZM197.604 342C196.812 342 196.169 342.642 196.169 343.435C196.169 344.227 196.811 344.87 197.604 344.87C198.396 344.87 199.039 344.227 199.039 343.435C199.039 342.643 198.396 342 197.604 342ZM204.396 342C203.604 342 202.961 342.642 202.961 343.435C202.961 344.227 203.603 344.87 204.396 344.87C205.188 344.87 205.831 344.227 205.831 343.435C205.831 342.643 205.188 342 204.396 342ZM211.188 342C210.396 342 209.753 342.642 209.753 343.435C209.753 344.227 210.395 344.87 211.188 344.87C211.98 344.87 212.623 344.227 212.623 343.435C212.623 342.643 211.98 342 211.188 342ZM217.98 342C217.188 342 216.545 342.642 216.545 343.435C216.545 344.227 217.187 344.87 217.98 344.87C218.773 344.87 219.415 344.227 219.415 343.435C219.415 342.643 218.772 342 217.98 342ZM170.435 347.739C169.643 347.739 169 348.381 169 349.174C169 349.966 169.643 350.609 170.435 350.609C171.227 350.609 171.87 349.966 171.87 349.174C171.87 348.381 171.228 347.739 170.435 347.739ZM177.227 347.739C176.435 347.739 175.792 348.381 175.792 349.174C175.792 349.966 176.435 350.609 177.227 350.609C178.019 350.609 178.662 349.966 178.662 349.174C178.662 348.381 178.02 347.739 177.227 347.739ZM184.019 347.739C183.227 347.739 182.584 348.381 182.584 349.174C182.584 349.966 183.227 350.609 184.019 350.609C184.811 350.609 185.454 349.966 185.454 349.174C185.454 348.381 184.812 347.739 184.019 347.739ZM190.812 347.739C190.02 347.739 189.377 348.381 189.377 349.174C189.377 349.966 190.019 350.609 190.812 350.609C191.604 350.609 192.246 349.966 192.246 349.174C192.246 348.381 191.604 347.739 190.812 347.739ZM197.604 347.739C196.812 347.739 196.169 348.381 196.169 349.174C196.169 349.966 196.811 350.609 197.604 350.609C198.396 350.609 199.039 349.966 199.039 349.174C199.039 348.381 198.396 347.739 197.604 347.739ZM204.396 347.739C203.604 347.739 202.961 348.381 202.961 349.174C202.961 349.966 203.603 350.609 204.396 350.609C205.188 350.609 205.831 349.966 205.831 349.174C205.831 348.381 205.188 347.739 204.396 347.739ZM211.188 347.739C210.396 347.739 209.753 348.381 209.753 349.174C209.753 349.966 210.395 350.609 211.188 350.609C211.98 350.609 212.623 349.966 212.623 349.174C212.623 348.381 211.98 347.739 211.188 347.739ZM217.98 347.739C217.188 347.739 216.545 348.381 216.545 349.174C216.545 349.966 217.187 350.609 217.98 350.609C218.773 350.609 219.415 349.966 219.415 349.174C219.415 348.381 218.772 347.739 217.98 347.739ZM170.435 353.477C169.643 353.477 169 354.119 169 354.912C169 355.704 169.643 356.347 170.435 356.347C171.227 356.347 171.87 355.704 171.87 354.912C171.87 354.119 171.228 353.477 170.435 353.477ZM177.227 353.477C176.435 353.477 175.792 354.119 175.792 354.912C175.792 355.704 176.435 356.347 177.227 356.347C178.019 356.347 178.662 355.704 178.662 354.912C178.662 354.119 178.02 353.477 177.227 353.477ZM184.019 353.477C183.227 353.477 182.584 354.119 182.584 354.912C182.584 355.704 183.227 356.347 184.019 356.347C184.811 356.347 185.454 355.704 185.454 354.912C185.454 354.119 184.812 353.477 184.019 353.477ZM190.812 353.477C190.02 353.477 189.377 354.119 189.377 354.912C189.377 355.704 190.019 356.347 190.812 356.347C191.604 356.347 192.246 355.704 192.246 354.912C192.246 354.119 191.604 353.477 190.812 353.477ZM197.604 353.477C196.812 353.477 196.169 354.119 196.169 354.912C196.169 355.704 196.811 356.347 197.604 356.347C198.396 356.347 199.039 355.704 199.039 354.912C199.039 354.119 198.396 353.477 197.604 353.477ZM204.396 353.477C203.604 353.477 202.961 354.119 202.961 354.912C202.961 355.704 203.603 356.347 204.396 356.347C205.188 356.347 205.831 355.704 205.831 354.912C205.831 354.119 205.188 353.477 204.396 353.477ZM211.188 353.477C210.396 353.477 209.753 354.119 209.753 354.912C209.753 355.704 210.395 356.347 211.188 356.347C211.98 356.347 212.623 355.704 212.623 354.912C212.623 354.119 211.98 353.477 211.188 353.477ZM217.98 353.477C217.188 353.477 216.545 354.119 216.545 354.912C216.545 355.704 217.187 356.347 217.98 356.347C218.773 356.347 219.415 355.704 219.415 354.912C219.415 354.119 218.772 353.477 217.98 353.477ZM170.435 359.215C169.643 359.215 169 359.857 169 360.65C169 361.442 169.643 362.085 170.435 362.085C171.227 362.085 171.87 361.442 171.87 360.65C171.87 359.857 171.228 359.215 170.435 359.215ZM177.227 359.215C176.435 359.215 175.792 359.857 175.792 360.65C175.792 361.442 176.435 362.085 177.227 362.085C178.019 362.085 178.662 361.442 178.662 360.65C178.662 359.857 178.02 359.215 177.227 359.215ZM184.019 359.215C183.227 359.215 182.584 359.857 182.584 360.65C182.584 361.442 183.227 362.085 184.019 362.085C184.811 362.085 185.454 361.442 185.454 360.65C185.454 359.857 184.812 359.215 184.019 359.215ZM190.812 359.215C190.02 359.215 189.377 359.857 189.377 360.65C189.377 361.442 190.019 362.085 190.812 362.085C191.604 362.085 192.246 361.442 192.246 360.65C192.246 359.857 191.604 359.215 190.812 359.215ZM197.604 359.215C196.812 359.215 196.169 359.857 196.169 360.65C196.169 361.442 196.811 362.085 197.604 362.085C198.396 362.085 199.039 361.442 199.039 360.65C199.039 359.857 198.396 359.215 197.604 359.215ZM204.396 359.215C203.604 359.215 202.961 359.857 202.961 360.65C202.961 361.442 203.603 362.085 204.396 362.085C205.188 362.085 205.831 361.442 205.831 360.65C205.831 359.857 205.188 359.215 204.396 359.215ZM211.188 359.215C210.396 359.215 209.753 359.857 209.753 360.65C209.753 361.442 210.395 362.085 211.188 362.085C211.98 362.085 212.623 361.442 212.623 360.65C212.623 359.857 211.98 359.215 211.188 359.215ZM217.98 359.215C217.188 359.215 216.545 359.857 216.545 360.65C216.545 361.442 217.187 362.085 217.98 362.085C218.773 362.085 219.415 361.442 219.415 360.65C219.415 359.857 218.772 359.215 217.98 359.215ZM170.435 364.954C169.643 364.954 169 365.596 169 366.389C169 367.181 169.643 367.824 170.435 367.824C171.227 367.824 171.87 367.181 171.87 366.389C171.87 365.596 171.228 364.954 170.435 364.954ZM177.227 364.954C176.435 364.954 175.792 365.596 175.792 366.389C175.792 367.181 176.435 367.824 177.227 367.824C178.019 367.824 178.662 367.181 178.662 366.389C178.662 365.596 178.02 364.954 177.227 364.954ZM184.019 364.954C183.227 364.954 182.584 365.596 182.584 366.389C182.584 367.181 183.227 367.824 184.019 367.824C184.811 367.824 185.454 367.181 185.454 366.389C185.454 365.596 184.812 364.954 184.019 364.954ZM190.812 364.954C190.02 364.954 189.377 365.596 189.377 366.389C189.377 367.181 190.019 367.824 190.812 367.824C191.604 367.824 192.246 367.181 192.246 366.389C192.246 365.596 191.604 364.954 190.812 364.954ZM197.604 364.954C196.812 364.954 196.169 365.596 196.169 366.389C196.169 367.181 196.811 367.824 197.604 367.824C198.396 367.824 199.039 367.181 199.039 366.389C199.039 365.596 198.396 364.954 197.604 364.954ZM204.396 364.954C203.604 364.954 202.961 365.596 202.961 366.389C202.961 367.181 203.603 367.824 204.396 367.824C205.188 367.824 205.831 367.181 205.831 366.389C205.831 365.596 205.188 364.954 204.396 364.954ZM211.188 364.954C210.396 364.954 209.753 365.596 209.753 366.389C209.753 367.181 210.395 367.824 211.188 367.824C211.98 367.824 212.623 367.181 212.623 366.389C212.623 365.596 211.98 364.954 211.188 364.954ZM217.98 364.954C217.188 364.954 216.545 365.596 216.545 366.389C216.545 367.181 217.187 367.824 217.98 367.824C218.773 367.824 219.415 367.181 219.415 366.389C219.415 365.596 218.772 364.954 217.98 364.954ZM170.435 370.692C169.643 370.692 169 371.334 169 372.127C169 372.92 169.643 373.562 170.435 373.562C171.227 373.562 171.87 372.92 171.87 372.127C171.87 371.334 171.228 370.692 170.435 370.692ZM177.227 370.692C176.435 370.692 175.792 371.334 175.792 372.127C175.792 372.92 176.435 373.562 177.227 373.562C178.019 373.562 178.662 372.92 178.662 372.127C178.662 371.334 178.02 370.692 177.227 370.692ZM184.019 370.692C183.227 370.692 182.584 371.334 182.584 372.127C182.584 372.92 183.227 373.562 184.019 373.562C184.811 373.562 185.454 372.92 185.454 372.127C185.454 371.334 184.812 370.692 184.019 370.692ZM190.812 370.692C190.02 370.692 189.377 371.334 189.377 372.127C189.377 372.92 190.019 373.562 190.812 373.562C191.604 373.562 192.246 372.92 192.246 372.127C192.246 371.334 191.604 370.692 190.812 370.692ZM197.604 370.692C196.812 370.692 196.169 371.334 196.169 372.127C196.169 372.92 196.811 373.562 197.604 373.562C198.396 373.562 199.039 372.92 199.039 372.127C199.039 371.334 198.396 370.692 197.604 370.692ZM204.396 370.692C203.604 370.692 202.961 371.334 202.961 372.127C202.961 372.92 203.603 373.562 204.396 373.562C205.188 373.562 205.831 372.92 205.831 372.127C205.831 371.334 205.188 370.692 204.396 370.692ZM211.188 370.692C210.396 370.692 209.753 371.334 209.753 372.127C209.753 372.92 210.395 373.562 211.188 373.562C211.98 373.562 212.623 372.92 212.623 372.127C212.623 371.334 211.98 370.692 211.188 370.692ZM217.98 370.692C217.188 370.692 216.545 371.334 216.545 372.127C216.545 372.92 217.187 373.562 217.98 373.562C218.773 373.562 219.415 372.92 219.415 372.127C219.415 371.334 218.772 370.692 217.98 370.692ZM170.435 376.43C169.643 376.43 169 377.072 169 377.865C169 378.658 169.643 379.3 170.435 379.3C171.227 379.3 171.87 378.658 171.87 377.865C171.87 377.072 171.228 376.43 170.435 376.43ZM177.227 376.43C176.435 376.43 175.792 377.072 175.792 377.865C175.792 378.658 176.435 379.3 177.227 379.3C178.019 379.3 178.662 378.658 178.662 377.865C178.662 377.072 178.02 376.43 177.227 376.43ZM184.019 376.43C183.227 376.43 182.584 377.072 182.584 377.865C182.584 378.658 183.227 379.3 184.019 379.3C184.811 379.3 185.454 378.658 185.454 377.865C185.454 377.072 184.812 376.43 184.019 376.43ZM190.812 376.43C190.02 376.43 189.377 377.072 189.377 377.865C189.377 378.658 190.019 379.3 190.812 379.3C191.604 379.3 192.246 378.658 192.246 377.865C192.246 377.072 191.604 376.43 190.812 376.43ZM197.604 376.43C196.812 376.43 196.169 377.072 196.169 377.865C196.169 378.658 196.811 379.3 197.604 379.3C198.396 379.3 199.039 378.658 199.039 377.865C199.039 377.072 198.396 376.43 197.604 376.43ZM204.396 376.43C203.604 376.43 202.961 377.072 202.961 377.865C202.961 378.658 203.603 379.3 204.396 379.3C205.188 379.3 205.831 378.658 205.831 377.865C205.831 377.072 205.188 376.43 204.396 376.43ZM211.188 376.43C210.396 376.43 209.753 377.072 209.753 377.865C209.753 378.658 210.395 379.3 211.188 379.3C211.98 379.3 212.623 378.658 212.623 377.865C212.623 377.072 211.98 376.43 211.188 376.43ZM217.98 376.43C217.188 376.43 216.545 377.072 216.545 377.865C216.545 378.658 217.187 379.3 217.98 379.3C218.773 379.3 219.415 378.658 219.415 377.865C219.415 377.072 218.772 376.43 217.98 376.43ZM170.435 382.168C169.643 382.168 169 382.81 169 383.603C169 384.396 169.643 385.038 170.435 385.038C171.227 385.038 171.87 384.396 171.87 383.603C171.87 382.81 171.228 382.168 170.435 382.168ZM177.227 382.168C176.435 382.168 175.792 382.81 175.792 383.603C175.792 384.396 176.435 385.038 177.227 385.038C178.019 385.038 178.662 384.396 178.662 383.603C178.662 382.81 178.02 382.168 177.227 382.168ZM184.019 382.168C183.227 382.168 182.584 382.81 182.584 383.603C182.584 384.396 183.227 385.038 184.019 385.038C184.811 385.038 185.454 384.396 185.454 383.603C185.454 382.81 184.812 382.168 184.019 382.168ZM190.812 382.168C190.02 382.168 189.377 382.81 189.377 383.603C189.377 384.396 190.019 385.038 190.812 385.038C191.604 385.038 192.246 384.396 192.246 383.603C192.246 382.81 191.604 382.168 190.812 382.168ZM197.604 382.168C196.812 382.168 196.169 382.81 196.169 383.603C196.169 384.396 196.811 385.038 197.604 385.038C198.396 385.038 199.039 384.396 199.039 383.603C199.039 382.81 198.396 382.168 197.604 382.168ZM204.396 382.168C203.604 382.168 202.961 382.81 202.961 383.603C202.961 384.396 203.603 385.038 204.396 385.038C205.188 385.038 205.831 384.396 205.831 383.603C205.831 382.81 205.188 382.168 204.396 382.168ZM211.188 382.168C210.396 382.168 209.753 382.81 209.753 383.603C209.753 384.396 210.395 385.038 211.188 385.038C211.98 385.038 212.623 384.396 212.623 383.603C212.623 382.81 211.98 382.168 211.188 382.168ZM217.98 382.168C217.188 382.168 216.545 382.81 216.545 383.603C216.545 384.396 217.187 385.038 217.98 385.038C218.773 385.038 219.415 384.396 219.415 383.603C219.415 382.81 218.772 382.168 217.98 382.168ZM170.435 387.907C169.643 387.907 169 388.549 169 389.342C169 390.135 169.643 390.777 170.435 390.777C171.227 390.777 171.87 390.135 171.87 389.342C171.87 388.549 171.228 387.907 170.435 387.907ZM177.227 387.907C176.435 387.907 175.792 388.549 175.792 389.342C175.792 390.135 176.435 390.777 177.227 390.777C178.019 390.777 178.662 390.135 178.662 389.342C178.662 388.549 178.02 387.907 177.227 387.907ZM184.019 387.907C183.227 387.907 182.584 388.549 182.584 389.342C182.584 390.135 183.227 390.777 184.019 390.777C184.811 390.777 185.454 390.135 185.454 389.342C185.454 388.549 184.812 387.907 184.019 387.907ZM190.812 387.907C190.02 387.907 189.377 388.549 189.377 389.342C189.377 390.135 190.019 390.777 190.812 390.777C191.604 390.777 192.246 390.135 192.246 389.342C192.246 388.549 191.604 387.907 190.812 387.907ZM197.604 387.907C196.812 387.907 196.169 388.549 196.169 389.342C196.169 390.135 196.811 390.777 197.604 390.777C198.396 390.777 199.039 390.135 199.039 389.342C199.039 388.549 198.396 387.907 197.604 387.907ZM204.396 387.907C203.604 387.907 202.961 388.549 202.961 389.342C202.961 390.135 203.603 390.777 204.396 390.777C205.188 390.777 205.831 390.135 205.831 389.342C205.831 388.549 205.188 387.907 204.396 387.907ZM211.188 387.907C210.396 387.907 209.753 388.549 209.753 389.342C209.753 390.135 210.395 390.777 211.188 390.777C211.98 390.777 212.623 390.135 212.623 389.342C212.623 388.549 211.98 387.907 211.188 387.907ZM217.98 387.907C217.188 387.907 216.545 388.549 216.545 389.342C216.545 390.135 217.187 390.777 217.98 390.777C218.773 390.777 219.415 390.135 219.415 389.342C219.415 388.549 218.772 387.907 217.98 387.907ZM170.435 393.645C169.643 393.645 169 394.287 169 395.08C169 395.873 169.643 396.515 170.435 396.515C171.227 396.515 171.87 395.873 171.87 395.08C171.87 394.287 171.228 393.645 170.435 393.645ZM177.227 393.645C176.435 393.645 175.792 394.287 175.792 395.08C175.792 395.873 176.435 396.515 177.227 396.515C178.019 396.515 178.662 395.873 178.662 395.08C178.662 394.287 178.02 393.645 177.227 393.645ZM184.019 393.645C183.227 393.645 182.584 394.287 182.584 395.08C182.584 395.873 183.227 396.515 184.019 396.515C184.811 396.515 185.454 395.873 185.454 395.08C185.454 394.287 184.812 393.645 184.019 393.645ZM190.812 393.645C190.02 393.645 189.377 394.287 189.377 395.08C189.377 395.873 190.019 396.515 190.812 396.515C191.604 396.515 192.246 395.873 192.246 395.08C192.246 394.287 191.604 393.645 190.812 393.645ZM197.604 393.645C196.812 393.645 196.169 394.287 196.169 395.08C196.169 395.873 196.811 396.515 197.604 396.515C198.396 396.515 199.039 395.873 199.039 395.08C199.039 394.287 198.396 393.645 197.604 393.645ZM204.396 393.645C203.604 393.645 202.961 394.287 202.961 395.08C202.961 395.873 203.603 396.515 204.396 396.515C205.188 396.515 205.831 395.873 205.831 395.08C205.831 394.287 205.188 393.645 204.396 393.645ZM211.188 393.645C210.396 393.645 209.753 394.287 209.753 395.08C209.753 395.873 210.395 396.515 211.188 396.515C211.98 396.515 212.623 395.873 212.623 395.08C212.623 394.287 211.98 393.645 211.188 393.645ZM217.98 393.645C217.188 393.645 216.545 394.287 216.545 395.08C216.545 395.873 217.187 396.515 217.98 396.515C218.773 396.515 219.415 395.873 219.415 395.08C219.415 394.287 218.772 393.645 217.98 393.645ZM170.435 399.383C169.643 399.383 169 400.026 169 400.818C169 401.61 169.643 402.253 170.435 402.253C171.227 402.253 171.87 401.611 171.87 400.818C171.87 400.026 171.228 399.383 170.435 399.383ZM177.227 399.383C176.435 399.383 175.792 400.026 175.792 400.818C175.792 401.61 176.435 402.253 177.227 402.253C178.019 402.253 178.662 401.611 178.662 400.818C178.662 400.026 178.02 399.383 177.227 399.383ZM184.019 399.383C183.227 399.383 182.584 400.026 182.584 400.818C182.584 401.61 183.227 402.253 184.019 402.253C184.811 402.253 185.454 401.611 185.454 400.818C185.454 400.026 184.812 399.383 184.019 399.383ZM190.812 399.383C190.02 399.383 189.377 400.026 189.377 400.818C189.377 401.61 190.019 402.253 190.812 402.253C191.604 402.253 192.246 401.611 192.246 400.818C192.246 400.026 191.604 399.383 190.812 399.383ZM197.604 399.383C196.812 399.383 196.169 400.026 196.169 400.818C196.169 401.61 196.811 402.253 197.604 402.253C198.396 402.253 199.039 401.611 199.039 400.818C199.039 400.026 198.396 399.383 197.604 399.383ZM204.396 399.383C203.604 399.383 202.961 400.026 202.961 400.818C202.961 401.61 203.603 402.253 204.396 402.253C205.188 402.253 205.831 401.611 205.831 400.818C205.831 400.026 205.188 399.383 204.396 399.383ZM211.188 399.383C210.396 399.383 209.753 400.026 209.753 400.818C209.753 401.61 210.395 402.253 211.188 402.253C211.98 402.253 212.623 401.611 212.623 400.818C212.623 400.026 211.98 399.383 211.188 399.383ZM217.98 399.383C217.188 399.383 216.545 400.026 216.545 400.818C216.545 401.61 217.187 402.253 217.98 402.253C218.773 402.253 219.415 401.611 219.415 400.818C219.415 400.026 218.772 399.383 217.98 399.383ZM170.435 405.122C169.643 405.122 169 405.765 169 406.557C169 407.349 169.643 407.992 170.435 407.992C171.227 407.992 171.87 407.35 171.87 406.557C171.87 405.764 171.228 405.122 170.435 405.122ZM177.227 405.122C176.435 405.122 175.792 405.765 175.792 406.557C175.792 407.349 176.435 407.992 177.227 407.992C178.019 407.992 178.662 407.35 178.662 406.557C178.662 405.764 178.02 405.122 177.227 405.122ZM184.019 405.122C183.227 405.122 182.584 405.765 182.584 406.557C182.584 407.349 183.227 407.992 184.019 407.992C184.811 407.992 185.454 407.35 185.454 406.557C185.454 405.764 184.812 405.122 184.019 405.122ZM190.812 405.122C190.02 405.122 189.377 405.765 189.377 406.557C189.377 407.349 190.019 407.992 190.812 407.992C191.604 407.992 192.246 407.35 192.246 406.557C192.246 405.764 191.604 405.122 190.812 405.122ZM197.604 405.122C196.812 405.122 196.169 405.765 196.169 406.557C196.169 407.349 196.811 407.992 197.604 407.992C198.396 407.992 199.039 407.35 199.039 406.557C199.039 405.764 198.396 405.122 197.604 405.122ZM204.396 405.122C203.604 405.122 202.961 405.765 202.961 406.557C202.961 407.349 203.603 407.992 204.396 407.992C205.188 407.992 205.831 407.35 205.831 406.557C205.831 405.764 205.188 405.122 204.396 405.122ZM211.188 405.122C210.396 405.122 209.753 405.765 209.753 406.557C209.753 407.349 210.395 407.992 211.188 407.992C211.98 407.992 212.623 407.35 212.623 406.557C212.623 405.764 211.98 405.122 211.188 405.122ZM217.98 405.122C217.188 405.122 216.545 405.765 216.545 406.557C216.545 407.349 217.187 407.992 217.98 407.992C218.773 407.992 219.415 407.35 219.415 406.557C219.415 405.764 218.772 405.122 217.98 405.122ZM170.435 410.86C169.643 410.86 169 411.503 169 412.295C169 413.087 169.643 413.73 170.435 413.73C171.227 413.73 171.87 413.088 171.87 412.295C171.87 411.502 171.228 410.86 170.435 410.86ZM177.227 410.86C176.435 410.86 175.792 411.503 175.792 412.295C175.792 413.087 176.435 413.73 177.227 413.73C178.019 413.73 178.662 413.088 178.662 412.295C178.662 411.502 178.02 410.86 177.227 410.86ZM184.019 410.86C183.227 410.86 182.584 411.503 182.584 412.295C182.584 413.087 183.227 413.73 184.019 413.73C184.811 413.73 185.454 413.088 185.454 412.295C185.454 411.502 184.812 410.86 184.019 410.86ZM190.812 410.86C190.02 410.86 189.377 411.503 189.377 412.295C189.377 413.087 190.019 413.73 190.812 413.73C191.604 413.73 192.246 413.088 192.246 412.295C192.246 411.502 191.604 410.86 190.812 410.86ZM197.604 410.86C196.812 410.86 196.169 411.503 196.169 412.295C196.169 413.087 196.811 413.73 197.604 413.73C198.396 413.73 199.039 413.088 199.039 412.295C199.039 411.502 198.396 410.86 197.604 410.86ZM204.396 410.86C203.604 410.86 202.961 411.503 202.961 412.295C202.961 413.087 203.603 413.73 204.396 413.73C205.188 413.73 205.831 413.088 205.831 412.295C205.831 411.502 205.188 410.86 204.396 410.86ZM211.188 410.86C210.396 410.86 209.753 411.503 209.753 412.295C209.753 413.087 210.395 413.73 211.188 413.73C211.98 413.73 212.623 413.088 212.623 412.295C212.623 411.502 211.98 410.86 211.188 410.86ZM217.98 410.86C217.188 410.86 216.545 411.503 216.545 412.295C216.545 413.087 217.187 413.73 217.98 413.73C218.773 413.73 219.415 413.088 219.415 412.295C219.415 411.502 218.772 410.86 217.98 410.86Z"
        fill="url(#paint12_linear_63_599)" />
    <path
        d="M218.869 451.707C223.346 451.707 226.976 448.078 226.976 443.6C226.976 439.123 223.346 435.493 218.869 435.493C214.391 435.493 210.762 439.123 210.762 443.6C210.762 448.078 214.391 451.707 218.869 451.707Z"
        stroke="url(#paint13_linear_63_599)" stroke-width="1.1896" stroke-miterlimit="10" />
    <path
        d="M153.519 167.43C159.164 167.43 163.741 162.853 163.741 157.208C163.741 151.562 159.164 146.986 153.519 146.986C147.873 146.986 143.297 151.562 143.297 157.208C143.297 162.853 147.873 167.43 153.519 167.43Z"
        stroke="url(#paint14_linear_63_599)" stroke-width="1.1896" stroke-miterlimit="10" />
    <defs>
        <linearGradient id="paint0_linear_63_599" x1="0.00145291" y1="92.5" x2="150" y2="92.5"
            gradientUnits="userSpaceOnUse">
            <stop stop-color="#22004B" />
            <stop offset="1" stop-color="#22004B" stop-opacity="0" />
        </linearGradient>
        <linearGradient id="paint1_linear_63_599" x1="147.001" y1="105.5" x2="361.001" y2="105.5"
            gradientUnits="userSpaceOnUse">
            <stop stop-color="#22004B" />
            <stop offset="1" stop-color="#22004B" stop-opacity="0" />
        </linearGradient>
        <linearGradient id="paint2_linear_63_599" x1="92.769" y1="454.511" x2="392.326" y2="454.511"
            gradientUnits="userSpaceOnUse">
            <stop stop-color="#22004B" />
            <stop offset="1" stop-color="#22004B" stop-opacity="0" />
        </linearGradient>
        <linearGradient id="paint3_linear_63_599" x1="62.0395" y1="587.152" x2="110.883" y2="325.644"
            gradientUnits="userSpaceOnUse">
            <stop stop-color="#38FFFB" stop-opacity="0" />
            <stop offset="1" stop-color="#39FDFF" />
        </linearGradient>
        <linearGradient id="paint4_linear_63_599" x1="191.7" y1="174.381" x2="2.94328" y2="11.0577"
            gradientUnits="userSpaceOnUse">
            <stop stop-color="#38FFFB" stop-opacity="0" />
            <stop offset="1" stop-color="#39FDFF" />
        </linearGradient>
        <linearGradient id="paint5_linear_63_599" x1="203.192" y1="386.534" x2="50.9057" y2="611.919"
            gradientUnits="userSpaceOnUse">
            <stop stop-color="#38FFFB" stop-opacity="0" />
            <stop offset="1" stop-color="#39FDFF" />
        </linearGradient>
        <linearGradient id="paint6_linear_63_599" x1="212.897" y1="-47.4164" x2="155.362" y2="133.479"
            gradientUnits="userSpaceOnUse">
            <stop stop-color="#2747FF" />
            <stop offset="1" stop-color="#39FDFF" />
        </linearGradient>
        <linearGradient id="paint7_linear_63_599" x1="-43.3738" y1="128.769" x2="370.948" y2="128.769"
            gradientUnits="userSpaceOnUse">
            <stop stop-color="#17FFFF" />
            <stop offset="1" stop-color="#8CFBFF" />
        </linearGradient>
        <linearGradient id="paint8_linear_63_599" x1="177.603" y1="231.367" x2="283.13" y2="231.367"
            gradientUnits="userSpaceOnUse">
            <stop stop-color="#17FFFF" />
            <stop offset="1" stop-color="#8CFBFF" />
        </linearGradient>
        <linearGradient id="paint9_linear_63_599" x1="-32.6883" y1="501.099" x2="357.783" y2="501.099"
            gradientUnits="userSpaceOnUse">
            <stop stop-color="#17FFFF" />
            <stop offset="1" stop-color="#8CFBFF" />
        </linearGradient>
        <linearGradient id="paint10_linear_63_599" x1="336.4" y1="602.066" x2="222.644" y2="440.182"
            gradientUnits="userSpaceOnUse">
            <stop stop-color="#2747FF" />
            <stop offset="1" stop-color="#39FDFF" />
        </linearGradient>
        <linearGradient id="paint11_linear_63_599" x1="1.0005" y1="482.5" x2="272" y2="482.5"
            gradientUnits="userSpaceOnUse">
            <stop stop-color="#22004B" />
            <stop offset="1" stop-color="#22004B" stop-opacity="0" />
        </linearGradient>
        <linearGradient id="paint12_linear_63_599" x1="150.416" y1="433.104" x2="231.572" y2="330.737"
            gradientUnits="userSpaceOnUse">
            <stop stop-color="#C0B1D1" />
            <stop offset="1" stop-color="#BAA9CC" stop-opacity="0" />
        </linearGradient>
        <linearGradient id="paint13_linear_63_599" x1="218.87" y1="452.302" x2="218.87" y2="434.899"
            gradientUnits="userSpaceOnUse">
            <stop stop-color="#2747FF" />
            <stop offset="1" stop-color="#39FDFF" />
        </linearGradient>
        <linearGradient id="paint14_linear_63_599" x1="153.519" y1="168.024" x2="153.519" y2="146.39"
            gradientUnits="userSpaceOnUse">
            <stop stop-color="#2747FF" />
            <stop offset="1" stop-color="#39FDFF" />
        </linearGradient>
    </defs>
</svg>