<svg width="91" height="53" viewBox="0 0 91 53" fill="none" xmlns="http://www.w3.org/2000/svg">
    <path
        d="M40.5301 30.4592C38.7956 36.5997 33.1936 40.6141 27.1161 40.6141C25.8572 40.6141 24.5773 40.4462 23.3045 40.0826C17.157 38.3481 13.1426 32.7461 13.1426 26.6686C13.1426 25.4097 13.3174 24.1368 13.6811 22.857C15.4156 16.7095 21.0105 12.7021 27.0951 12.7021C28.354 12.7021 29.6268 12.8699 30.9067 13.2266C37.0472 14.9611 41.0616 20.57 41.0616 26.6476C41.0616 27.9065 40.8937 29.1793 40.5301 30.4592ZM21.3882 46.8735L21.5491 46.307L21.3882 46.8735ZM50.1325 25.2768C49.9227 21.78 48.9156 18.416 47.251 15.4296L50.1045 13.8351C48.6778 11.2684 46.8104 8.93945 44.5934 6.96022L42.4184 9.40103C39.9006 7.17703 36.8723 5.44957 33.4244 4.46346L34.3126 1.33026L34.2707 1.31628C31.8858 0.637883 29.466 0.31617 27.0951 0.31617C26.5776 0.31617 26.06 0.330158 25.5495 0.365126L25.7383 3.62421C22.2414 3.83402 18.8844 4.83412 15.8911 6.49863L14.3035 3.64519C11.7299 5.07191 9.40094 6.93225 7.42171 9.15626L9.86952 11.3383C7.63152 13.8421 5.90407 16.8773 4.91795 20.3183L1.78476 19.4301L1.77077 19.493C1.09238 21.8779 0.763672 24.2907 0.763672 26.6686C0.763672 27.1791 0.777659 27.6897 0.812628 28.1932L4.0787 27.9974C4.27453 31.4943 5.27463 34.8582 6.93914 37.8586L4.0857 39.4391C5.51242 42.0058 7.36576 44.3418 9.58977 46.328L11.7648 43.8802C14.2756 46.1182 17.3039 47.8526 20.7518 48.8387L19.8496 51.9719L19.9335 51.9929C22.3254 52.6713 24.7452 53 27.1161 53C27.6476 53 28.1791 52.979 28.7037 52.951L28.5078 49.685C31.9977 49.4752 35.3547 48.4611 38.348 46.7896L39.9426 49.643C42.5093 48.2163 44.8382 46.349 46.8174 44.1249L44.3696 41.9569C46.6006 39.4391 48.3281 36.4109 49.3072 32.9559L52.4404 33.8442V33.8232C53.1188 31.4383 53.4475 29.0185 53.4405 26.6406C53.4405 26.1231 53.4265 25.5985 53.3985 25.074L50.1325 25.2768Z"
        fill="#939598" />
    <path
        d="M72.0052 29.9193C71.0121 29.9193 70.005 29.7794 68.9909 29.4926C64.1303 28.1289 60.9551 23.6878 60.9551 18.8831C60.9551 17.883 61.088 16.8829 61.3747 15.8688C62.7455 11.0082 67.1865 7.83304 71.9912 7.83304C72.9844 7.83304 73.9984 7.95893 75.0055 8.24567C79.8732 9.62344 83.0413 14.0575 83.0483 18.8692C83.0483 19.8623 82.9085 20.8694 82.6287 21.8835C81.251 26.7441 76.8169 29.9193 72.0052 29.9193ZM90.2169 15.3303L88.0349 15.7569C87.7132 14.0645 87.1257 12.4489 86.2934 10.9592L88.2307 9.8892C86.832 7.35747 84.8457 5.16144 82.3979 3.50392L81.167 5.32928C79.7753 4.39212 78.2297 3.64379 76.5372 3.15423L77.1456 1.04912L77.0547 1.02114C75.3692 0.545568 73.6627 0.321769 71.9912 0.321769C70.8093 0.321769 69.6483 0.426675 68.5084 0.650474L68.928 2.82553C67.2285 3.14724 65.613 3.73471 64.1233 4.55298L63.0602 2.62271C60.5285 4.00747 58.3185 5.9867 56.661 8.4345L58.4723 9.6724C57.5352 11.0572 56.7938 12.6028 56.2973 14.2953L54.1922 13.6798L54.1502 13.8197C53.6676 15.5052 53.4438 17.2116 53.4438 18.8831C53.4438 20.0441 53.5557 21.1981 53.7656 22.3171L55.9406 21.9044C56.2623 23.6039 56.8358 25.2195 57.6541 26.7161L55.7168 27.7722C57.1086 30.3039 59.0738 32.5139 61.5146 34.1854L62.7595 32.3811C64.1373 33.3182 65.6899 34.0666 67.3754 34.5631L66.7599 36.6682L66.9488 36.7312C68.6342 37.1997 70.3337 37.4305 72.0052 37.4305C73.2221 37.4305 74.4251 37.3116 75.593 37.0739L75.1594 34.9058C76.8519 34.5701 78.4604 33.9756 79.9501 33.1504L81.0341 35.0806C83.5519 33.6749 85.7479 31.6887 87.3984 29.2269L85.5661 28.003C86.5032 26.6112 87.2516 25.0726 87.7341 23.3661L89.8393 23.9676L89.8533 23.9256C90.3288 22.2401 90.5526 20.5407 90.5526 18.8692C90.5526 17.6662 90.4407 16.4843 90.2169 15.3303"
        fill="#939598" />
</svg>