<svg width="26" height="26" viewBox="0 0 26 26" fill="none" xmlns="http://www.w3.org/2000/svg">
    <path
        d="M15.6466 15.6513C12.7693 18.5279 8.08495 18.5279 5.20761 15.6513C2.33027 12.7747 2.33027 8.09149 5.20761 5.21485C8.08495 2.33821 12.7693 2.33821 15.6466 5.21485C18.5239 8.09149 18.5239 12.7747 15.6466 15.6513ZM2.24683 3.94337C-0.788769 7.74341 -0.742731 13.2953 2.35041 17.0493C5.8694 21.3125 11.8888 22 16.2163 19.1148L22.8918 25.7886C23.1737 26.0705 23.6312 26.0705 23.9132 25.7886L25.7864 23.9159C26.0712 23.6311 26.0712 23.1766 25.7864 22.8947L19.1138 16.2209C21.8156 12.1677 21.384 6.62728 17.8075 3.05162C13.4598 -1.29498 6.19742 -0.99869 2.24683 3.94337Z"
        fill="#939598" />
</svg>